<?xml version="1.0" encoding="utf-8"?>
<!-- Generator: Adobe Illustrator 18.0.0, SVG Export Plug-In . SVG Version: 6.00 Build 0)  -->
<!DOCTYPE svg PUBLIC "-//W3C//DTD SVG 1.1//EN" "http://www.w3.org/Graphics/SVG/1.1/DTD/svg11.dtd">
<svg version="1.1" id="Laag_1" xmlns="http://www.w3.org/2000/svg" xmlns:xlink="http://www.w3.org/1999/xlink" x="0px" y="0px"
	 viewBox="0 0 20.3 12.5" enable-background="new 0 0 20.3 12.5" xml:space="preserve">
<g>
	<polygon fill="none" points="18.2,6 18.5,6 18.8,5.3 18.6,5.1 	"/>
	<polygon fill="none" points="4.5,6.2 4.2,6.1 5.4,9 5.8,9.4 	"/>
	<polygon fill="none" points="14.9,4.4 14.9,5.1 15.8,2.7 15.6,2.5 	"/>
	<polygon fill="none" points="3.4,5.9 3.1,5.8 3.9,7.7 4.3,8.1 	"/>
	<polygon fill="none" points="2.9,5.8 2.6,5.7 3.1,7.1 3.6,7.5 	"/>
	<polygon fill="none" points="19.2,6 19.5,5.9 19.5,5.9 19.3,5.7 	"/>
	<polygon fill="none" points="18.7,6 19,6 19.2,5.6 18.9,5.4 	"/>
	<polygon fill="none" points="2.3,5.7 2,5.6 2.4,6.5 2.8,6.8 	"/>
	<polygon fill="none" points="14.9,3.1 14.9,3.9 15.5,2.4 15.3,2.2 	"/>
	<polygon fill="none" points="16.6,6.2 16.9,6.2 17.7,4.3 17.5,4.1 	"/>
	<polygon fill="none" points="16.1,6.2 16.4,6.2 17.3,4 17.1,3.8 	"/>
	<polygon fill="none" points="15.1,6.3 15.4,6.3 16.6,3.4 16.4,3.2 	"/>
	<polygon fill="none" points="15.6,6.3 15.9,6.2 16.9,3.7 16.7,3.5 	"/>
	<polygon fill="none" points="17.7,6.1 18,6.1 18.4,4.9 18.2,4.8 	"/>
	<polygon fill="none" points="5.1,6.3 4.8,6.2 6.1,9.7 6.6,10 	"/>
	<polygon fill="none" points="6.2,6.6 5.9,6.5 7.7,10.9 8.1,11.3 	"/>
	<polygon fill="none" points="14.9,5.6 14.9,6.3 16.2,3 16,2.9 	"/>
	<polygon fill="none" points="17.2,6.1 17.5,6.1 18.1,4.6 17.8,4.4 	"/>
	<path fill="none" d="M8.5,4.4l0.5,0c0.7,0.1,0.8-0.6,0.8-0.8c0-0.2-0.1-0.8-0.8-0.9l-0.5,0V4.4z"/>
	<polygon fill="none" points="8.2,7.4 8.2,7.1 8.1,7 	"/>
	<polygon fill="none" points="5.6,6.4 5.3,6.4 6.9,10.3 7.4,10.7 	"/>
	<path fill="none" d="M11.6,3.8c0,0.2,0.1,0.9,0.8,0.9c0.7,0.1,0.8-0.6,0.8-0.8c0-0.2-0.1-0.8-0.8-0.9C11.7,3,11.6,3.6,11.6,3.8z"/>
	<polygon fill="none" points="8.2,9.8 8.2,9.1 7.3,6.8 7,6.8 	"/>
	<polygon fill="none" points="4,6 3.7,6 4.6,8.4 5.1,8.8 	"/>
	<polygon fill="none" points="8.2,8.6 8.2,7.9 7.8,7 7.5,6.9 	"/>
	<polygon fill="none" points="2.1,5.4 8.3,6.9 8.3,6.9 13.7,6.4 	"/>
	<path fill="none" d="M18,8.4c0-0.2-0.1-0.9-0.8-0.8c-0.7,0.1-0.8,0.7-0.8,0.9c0,0.2,0.1,0.9,0.8,0.8C17.9,9.3,18,8.6,18,8.4z"/>
	<path fill="none" d="M0.8,5.1l13.9,1.2V1.8L0.8,0.6L0.8,5.1z M2.9,2.1c0.3,0,0.6,0.2,0.7,0.3c0,0,0,0,0,0c0,0,0,0,0,0L3.5,2.5
		c0,0,0,0-0.1,0C3.3,2.4,3.1,2.3,2.9,2.3c-0.1,0-0.1,0-0.2,0c0,0-0.1,0.1-0.2,0.2l0,0c0,0-0.1,0.3,0.5,0.5c0,0,0.8,0.2,0.7,0.7
		c0,0.1-0.1,0.4-0.5,0.4c0,0,0,0-0.1,0c-0.1,0-0.5,0-0.7-0.3c0,0,0,0,0,0c0,0,0,0,0,0l0.1,0c0,0,0,0,0.1,0C2.7,3.9,3,3.9,3.1,3.9
		c0,0,0,0,0,0c0.3,0,0.3-0.3,0.3-0.3l0,0c0.1-0.3-0.5-0.5-0.5-0.5C2.3,2.9,2.3,2.5,2.3,2.4c0-0.2,0.3-0.3,0.3-0.3
		C2.7,2.1,2.8,2.1,2.9,2.1z M4.1,2.3L4.1,2.3C4.1,2.2,4.1,2.2,4.1,2.3l1.4,0c0,0,0,0,0,0v0.1c0,0,0,0,0,0L4.9,2.4v1.8c0,0,0,0,0,0
		l-0.1,0c0,0,0,0,0,0V2.4L4.1,2.3C4.1,2.3,4.1,2.3,4.1,2.3z M9,2.6c0.7,0.1,1,0.7,1,1.1c0,0.4-0.2,1-1,0.9L8.3,4.5c0,0,0,0,0,0V2.6
		c0,0,0,0,0,0L9,2.6z M12.4,2.9c0.7,0.1,1,0.7,1,1.1c0,0.4-0.2,1-1,0.9c-0.7-0.1-1-0.7-1-1.1C11.4,3.4,11.6,2.8,12.4,2.9z M10.6,4.7
		V2.8c0,0,0,0,0,0l0.1,0c0,0,0,0,0,0v1.9c0,0,0,0,0,0L10.6,4.7C10.6,4.7,10.6,4.7,10.6,4.7z M6.2,3.6c0,0.2,0.1,0.6,0.6,0.7
		c0.5,0,0.6-0.4,0.6-0.6V2.5c0,0,0,0,0,0l0.1,0c0,0,0,0,0,0v1.2c0,0.3-0.2,0.7-0.8,0.7C6.2,4.3,6,3.9,6,3.6V2.4c0,0,0,0,0.1,0l0.1,0
		c0,0,0,0,0,0V3.6z"/>
	<polygon fill="none" points="8.2,10.3 6.7,6.7 6.4,6.6 8.2,11.1 	"/>
	<path fill="none" d="M15.1,8.7c0.4,0,0.5-0.4,0.5-0.5c0-0.2-0.1-0.5-0.5-0.4l-0.5,0v0.9L15.1,8.7z"/>
	<polygon fill="none" points="1.2,5.4 1.1,5.3 1.3,5.6 	"/>
	<polygon fill="none" points="12.8,8.2 12.5,9.2 13.2,9.1 	"/>
	<path fill="none" d="M19.7,6.1l-4.8,0.4l-0.2,0L8.4,7.1v4.4l11.3-1V6.1z M17.2,9.5c-0.8,0.1-1-0.5-1-0.9c0-0.4,0.2-1,1-1.1
		c0.8-0.1,1,0.5,1,0.9C18.2,8.8,18,9.4,17.2,9.5z M15.5,9.6l-0.1,0c0,0,0,0-0.1,0L15,8.9l-0.5,0v0.8c0,0,0,0-0.1,0l-0.1,0
		c0,0,0,0,0,0V7.8c0,0,0,0,0,0L15,7.7c0.5,0,0.7,0.3,0.7,0.5c0,0.3-0.2,0.6-0.5,0.6L15.5,9.6C15.6,9.6,15.6,9.6,15.5,9.6z M13.7,9.8
		C13.7,9.8,13.7,9.8,13.7,9.8l-0.1,0.1c0,0,0,0-0.1,0l-0.2-0.5l-0.9,0.1l-0.2,0.6c0,0,0,0-0.1,0l-0.1,0c0,0,0,0,0,0l0.8-2
		c0,0,0,0,0,0c0,0,0,0,0,0L13.7,9.8z M10.8,10.1c-0.8,0.1-1-0.5-1-0.9c0-0.4,0.2-1,1-1.1c0.3,0,0.5,0.1,0.7,0.2c0,0,0,0,0,0.1
		l-0.1,0.1c0,0,0,0-0.1,0c-0.1-0.1-0.3-0.2-0.6-0.2C10.1,8.3,10,8.9,10,9.1c0,0.2,0.1,0.9,0.8,0.8c0.2,0,0.4-0.1,0.6-0.2
		c0,0,0,0,0.1,0l0,0.1c0,0,0,0,0,0.1C11.3,9.9,11.1,10,10.8,10.1z"/>
	<polygon fill="none" points="1.8,5.5 1.5,5.4 1.6,5.8 2.1,6.2 	"/>
	<polygon fill="none" points="14.9,2.6 15.1,2.1 14.9,1.9 14.9,1.9 	"/>
	<polygon fill="#CCCCCC" points="1.5,5.4 1.2,5.4 1.3,5.6 1.6,5.8 	"/>
	<polygon fill="#CCCCCC" points="2,5.6 1.8,5.5 2.1,6.2 2.4,6.5 	"/>
	<polygon fill="#CCCCCC" points="2.6,5.7 2.3,5.7 2.8,6.8 3.1,7.1 	"/>
	<polygon fill="#CCCCCC" points="3.1,5.8 2.9,5.8 3.6,7.5 3.9,7.7 	"/>
	<polygon fill="#CCCCCC" points="3.7,6 3.4,5.9 4.3,8.1 4.6,8.4 	"/>
	<polygon fill="#CCCCCC" points="4.2,6.1 4,6 5.1,8.8 5.4,9 	"/>
	<polygon fill="#CCCCCC" points="4.8,6.2 4.5,6.2 5.8,9.4 6.1,9.7 	"/>
	<polygon fill="#CCCCCC" points="5.3,6.4 5.1,6.3 6.6,10 6.9,10.3 	"/>
	<polygon fill="#CCCCCC" points="5.9,6.5 5.6,6.4 7.4,10.7 7.7,10.9 	"/>
	<polygon fill="#CCCCCC" points="6.4,6.6 6.2,6.6 8.1,11.3 8.2,11.4 8.2,11.1 	"/>
	<polygon fill="#CCCCCC" points="8.2,10.3 8.2,9.8 7,6.8 6.7,6.7 	"/>
	<polygon fill="#CCCCCC" points="8.2,9.1 8.2,8.6 7.5,6.9 7.3,6.8 	"/>
	<polygon fill="#CCCCCC" points="8.2,7.9 8.2,7.4 8.1,7 7.8,7 	"/>
	<polygon fill="#B3B3B3" points="19.6,5.9 19.5,5.9 19.5,5.9 	"/>
	<polygon fill="#B3B3B3" points="19,6 19.2,6 19.3,5.7 19.2,5.6 	"/>
	<polygon fill="#B3B3B3" points="18.5,6 18.7,6 18.9,5.4 18.8,5.3 	"/>
	<polygon fill="#B3B3B3" points="18,6.1 18.2,6 18.6,5.1 18.4,4.9 	"/>
	<polygon fill="#B3B3B3" points="17.5,6.1 17.7,6.1 18.2,4.8 18.1,4.6 	"/>
	<polygon fill="#B3B3B3" points="16.9,6.2 17.2,6.1 17.8,4.4 17.7,4.3 	"/>
	<polygon fill="#B3B3B3" points="16.4,6.2 16.6,6.2 17.5,4.1 17.3,4 	"/>
	<polygon fill="#B3B3B3" points="15.9,6.2 16.1,6.2 17.1,3.8 16.9,3.7 	"/>
	<polygon fill="#B3B3B3" points="15.4,6.3 15.6,6.3 16.7,3.5 16.6,3.4 	"/>
	<polygon fill="#B3B3B3" points="14.9,6.3 14.9,6.3 15.1,6.3 16.4,3.2 16.2,3 	"/>
	<polygon fill="#B3B3B3" points="14.9,5.1 14.9,5.6 16,2.9 15.8,2.7 	"/>
	<polygon fill="#B3B3B3" points="14.9,3.9 14.9,4.4 15.6,2.5 15.5,2.4 	"/>
	<polygon fill="#B3B3B3" points="14.9,2.6 14.9,3.1 15.3,2.2 15.1,2.1 	"/>
	<polygon fill="#B3B3B3" points="14.9,1.9 14.9,1.9 14.9,1.9 	"/>
	<polygon fill="#B3B3B3" points="5.6,6.4 5.6,6.3 5.3,6.2 5.3,6.4 	"/>
	<polygon fill="#B3B3B3" points="7.4,10.7 6.9,10.3 7,10.4 7.4,10.8 	"/>
	<polygon fill="#B3B3B3" points="7.7,10.9 7.7,11.1 8.2,11.5 8.1,11.3 	"/>
	<path fill="#B3B3B3" d="M0.6,5.1c0,0,0,0.1,0,0.1l7.6,6.5c0,0,0,0,0,0c0,0,0,0,0,0c0,0,0,0,0,0l11.4-1c0,0,0.1,0,0.1-0.1V6.1
		c0-0.1,0-0.1,0-0.1l-4.9-4.2c0,0-0.1,0-0.1,0c0,0,0,0,0,0L0.7,0.4c0,0-0.1,0-0.1,0c0,0,0,0,0,0.1L0.6,5.1z M8.2,11.5l-0.4-0.4
		l-0.3-0.3L7,10.4l-0.3-0.3L6.2,9.8L5.9,9.5L5.4,9.2L5.1,8.9L4.7,8.5L4.4,8.3L3.9,7.9L3.6,7.6L3.2,7.2L2.9,7L2.4,6.6L2.1,6.3L1.7,6
		L1.4,5.7L0.9,5.3L0.7,5.2l0.1,0l0.3,0.1l0.2,0.1l0.3,0.1L2,5.5l0.3,0.1l0.2,0.1l0.3,0.1l0.2,0.1l0.3,0.1l0.2,0.1l0.3,0.1L4.2,6
		l0.3,0.1l0.2,0.1L5,6.2l0.2,0.1l0.3,0.1l0.2,0.1l0.3,0.1l0.2,0.1l0.3,0.1l0.2,0.1l0.3,0.1l0.2,0.1l0.3,0.1L8,6.9L8.3,7l0,0v0v0.7
		v0.5v0.7v0.5v0.7v0.5v0.7v0.2L8.2,11.5z M13.7,6.4L8.3,6.9c0,0,0,0,0,0L2.1,5.4L13.7,6.4z M8.4,11.5V7.1l6.3-0.6l0.2,0l4.8-0.4v4.4
		L8.4,11.5z M14.9,1.8L15.1,2l0.2,0.1l0.2,0.2l0.2,0.1l0.2,0.2L16,2.8L16.2,3l0.2,0.1l0.2,0.2l0.2,0.1L17,3.6l0.2,0.1l0.2,0.2
		L17.5,4l0.2,0.2l0.2,0.1L18,4.5l0.1,0.1l0.2,0.1l0.2,0.2L18.6,5l0.2,0.2L19,5.3l0.2,0.2l0.2,0.1l0.2,0.2l0.2,0.1l0,0l0,0l-0.2,0
		l-0.3,0L19,6l-0.3,0l-0.2,0l-0.3,0l-0.2,0l-0.3,0l-0.2,0l-0.3,0l-0.2,0l-0.3,0l-0.2,0l-0.3,0l-0.2,0l-0.3,0l-0.2,0l-0.3,0l-0.2,0
		l-0.1,0l0-0.5l0-0.5l0-0.8l0-0.5l0-0.8l0-0.5l0-0.8L14.9,1.8L14.9,1.8z M0.8,0.6l13.9,1.2v4.5L0.8,5.1L0.8,0.6z"/>
	<polygon fill="#B3B3B3" points="4.8,6.2 5.1,6.3 5,6.2 4.7,6.1 	"/>
	<polygon fill="#B3B3B3" points="4.5,6.2 4.5,6.1 4.2,6 4.2,6.1 	"/>
	<polygon fill="#B3B3B3" points="6.4,6.6 6.7,6.7 6.7,6.6 6.4,6.5 	"/>
	<polygon fill="#B3B3B3" points="8.2,10.3 8.2,11.1 8.3,11.4 8.3,10.6 	"/>
	<polygon fill="#B3B3B3" points="15.6,2.5 15.8,2.7 15.9,2.6 15.7,2.4 	"/>
	<polygon fill="#B3B3B3" points="8.2,9.1 8.2,9.8 8.3,10.1 8.3,9.4 	"/>
	<polygon fill="#B3B3B3" points="14.9,1.9 15.1,2.1 15.1,2 14.9,1.8 	"/>
	<polygon fill="#B3B3B3" points="15.5,2.4 15.5,2.3 15.3,2.1 15.3,2.2 	"/>
	<polygon fill="#B3B3B3" points="6.2,6.6 6.1,6.4 5.8,6.4 5.9,6.5 	"/>
	<polygon fill="#B3B3B3" points="1.8,5.5 1.7,5.4 1.4,5.3 1.5,5.4 	"/>
	<polygon fill="#B3B3B3" points="1.1,5.3 1.2,5.4 1.2,5.3 0.9,5.2 0.9,5.3 1.4,5.7 1.3,5.6 	"/>
	<polygon fill="#B3B3B3" points="2.4,6.5 2.4,6.6 2.9,7 2.8,6.8 	"/>
	<polygon fill="#B3B3B3" points="1.6,5.8 1.7,6 2.1,6.3 2.1,6.2 	"/>
	<polygon fill="#B3B3B3" points="19.7,5.9 19.7,5.9 19.7,5.9 	"/>
	<polygon fill="#B3B3B3" points="2,5.6 2.3,5.7 2.3,5.5 2,5.5 	"/>
	<polygon fill="#B3B3B3" points="2.9,5.8 2.8,5.7 2.5,5.6 2.6,5.7 	"/>
	<polygon fill="#B3B3B3" points="5.1,8.8 4.6,8.4 4.7,8.5 5.1,8.9 	"/>
	<polygon fill="#B3B3B3" points="5.8,9.4 5.4,9 5.4,9.2 5.9,9.5 	"/>
	<polygon fill="#B3B3B3" points="3.1,7.1 3.2,7.2 3.6,7.6 3.6,7.5 	"/>
	<polygon fill="#B3B3B3" points="6.6,10 6.1,9.7 6.2,9.8 6.6,10.2 	"/>
	<polygon fill="#B3B3B3" points="3.7,6 4,6 3.9,5.9 3.6,5.8 	"/>
	<polygon fill="#B3B3B3" points="4.3,8.1 3.9,7.7 3.9,7.9 4.4,8.3 	"/>
	<polygon fill="#B3B3B3" points="14.9,5.6 14.8,5.8 14.8,6.3 14.9,6.3 14.9,6.3 	"/>
	<polygon fill="#B3B3B3" points="14.9,5.1 14.9,4.4 14.8,4.6 14.8,5.3 	"/>
	<polygon fill="#B3B3B3" points="17.7,6.1 17.7,6.1 18,6.1 18,6.1 	"/>
	<polygon fill="#B3B3B3" points="8.2,7.1 8.2,7.4 8.3,7.7 8.3,7 8.3,7 8,6.9 8.1,7 	"/>
	<polygon fill="#B3B3B3" points="16.6,6.2 16.6,6.2 16.9,6.2 16.9,6.2 	"/>
	<polygon fill="#B3B3B3" points="17.2,6.1 17.1,6.2 17.4,6.1 17.5,6.1 	"/>
	<polygon fill="#B3B3B3" points="8.2,7.9 8.2,8.6 8.3,8.9 8.3,8.2 	"/>
	<polygon fill="#B3B3B3" points="18.7,6 18.7,6 19,6 19,6 	"/>
	<polygon fill="#B3B3B3" points="18.2,6 18.2,6.1 18.5,6 18.5,6 	"/>
	<polygon fill="#B3B3B3" points="15.1,6.3 15.1,6.3 15.4,6.3 15.4,6.3 	"/>
	<polygon fill="#B3B3B3" points="3.4,5.9 3.4,5.8 3.1,5.7 3.1,5.8 	"/>
	<polygon fill="#B3B3B3" points="16.1,6.2 16.1,6.2 16.4,6.2 16.4,6.2 	"/>
	<polygon fill="#B3B3B3" points="14.9,3.1 14.8,3.3 14.8,4 14.9,3.9 	"/>
	<polygon fill="#B3B3B3" points="15.6,6.3 15.6,6.3 15.9,6.3 15.9,6.2 	"/>
	<polygon fill="#B3B3B3" points="14.9,1.9 14.9,2 14.8,2.7 14.9,2.6 	"/>
	<polygon fill="#B3B3B3" points="16.9,3.7 17,3.6 16.8,3.4 16.7,3.5 	"/>
	<polygon fill="#B3B3B3" points="17.7,4.3 17.7,4.2 17.5,4 17.5,4.1 	"/>
	<polygon fill="#B3B3B3" points="18.1,4.6 18.1,4.5 18,4.5 17.9,4.4 17.8,4.4 	"/>
	<polygon fill="#B3B3B3" points="18.4,4.9 18.5,4.9 18.2,4.7 18.2,4.8 	"/>
	<polygon fill="#B3B3B3" points="18.8,5.3 18.8,5.2 18.6,5 18.6,5.1 	"/>
	<polygon fill="#B3B3B3" points="16.6,3.4 16.6,3.3 16.4,3.1 16.4,3.2 	"/>
	<polygon fill="#B3B3B3" points="17.3,4 17.4,3.9 17.1,3.7 17.1,3.8 	"/>
	<polygon fill="#B3B3B3" points="19.2,6 19.2,6 19.5,6 19.5,5.9 	"/>
	<polygon fill="#B3B3B3" points="16.2,3 16.2,3 16,2.8 16,2.9 	"/>
	<polygon fill="#B3B3B3" points="7,6.8 7.3,6.8 7.2,6.7 6.9,6.6 	"/>
	<polygon fill="#B3B3B3" points="19.2,5.6 19.2,5.5 19,5.3 18.9,5.4 	"/>
	<polygon fill="#B3B3B3" points="19.5,5.9 19.6,5.8 19.3,5.6 19.3,5.7 	"/>
	<polygon fill="#B3B3B3" points="7.5,6.9 7.8,7 7.8,6.8 7.5,6.8 	"/>
	<polygon fill="#B3B3B3" points="0.9,5.2 0.7,5.2 0.9,5.3 	"/>
	<polygon fill="#B3B3B3" points="1.5,5.4 1.4,5.3 1.2,5.3 1.2,5.4 	"/>
	<polygon fill="#B3B3B3" points="1.6,5.8 1.3,5.6 1.4,5.7 1.7,6 	"/>
	<polygon fill="#B3B3B3" points="2,5.6 2,5.5 1.7,5.4 1.8,5.5 	"/>
	<polygon fill="#B3B3B3" points="2.4,6.5 2.1,6.2 2.1,6.3 2.4,6.6 	"/>
	<polygon fill="#B3B3B3" points="2.3,5.7 2.6,5.7 2.5,5.6 2.3,5.5 	"/>
	<polygon fill="#B3B3B3" points="3.1,7.1 2.8,6.8 2.9,7 3.2,7.2 	"/>
	<polygon fill="#B3B3B3" points="2.9,5.8 3.1,5.8 3.1,5.7 2.8,5.7 	"/>
	<polygon fill="#B3B3B3" points="3.6,7.5 3.6,7.6 3.9,7.9 3.9,7.7 	"/>
	<polygon fill="#B3B3B3" points="3.7,6 3.6,5.8 3.4,5.8 3.4,5.9 	"/>
	<polygon fill="#B3B3B3" points="4.3,8.1 4.4,8.3 4.7,8.5 4.6,8.4 	"/>
	<polygon fill="#B3B3B3" points="4.2,6.1 4.2,6 3.9,5.9 4,6 	"/>
	<polygon fill="#B3B3B3" points="5.1,8.8 5.1,8.9 5.4,9.2 5.4,9 	"/>
	<polygon fill="#B3B3B3" points="4.5,6.2 4.8,6.2 4.7,6.1 4.5,6.1 	"/>
	<polygon fill="#B3B3B3" points="5.8,9.4 5.9,9.5 6.2,9.8 6.1,9.7 	"/>
	<polygon fill="#B3B3B3" points="5.3,6.4 5.3,6.2 5,6.2 5.1,6.3 	"/>
	<polygon fill="#B3B3B3" points="6.6,10 6.6,10.2 7,10.4 6.9,10.3 	"/>
	<polygon fill="#B3B3B3" points="5.6,6.4 5.9,6.5 5.8,6.4 5.6,6.3 	"/>
	<polygon fill="#B3B3B3" points="7.7,10.9 7.4,10.7 7.4,10.8 7.7,11.1 	"/>
	<polygon fill="#B3B3B3" points="8.3,11.4 8.2,11.1 8.2,11.4 8.1,11.3 8.2,11.5 8.3,11.6 	"/>
	<polygon fill="#B3B3B3" points="6.4,6.6 6.4,6.5 6.1,6.4 6.2,6.6 	"/>
	<polygon fill="#B3B3B3" points="8.2,10.3 8.3,10.6 8.3,10.1 8.2,9.8 	"/>
	<polygon fill="#B3B3B3" points="7,6.8 6.9,6.6 6.7,6.6 6.7,6.7 	"/>
	<polygon fill="#B3B3B3" points="7.3,6.8 7.5,6.9 7.5,6.8 7.2,6.7 	"/>
	<polygon fill="#B3B3B3" points="8.2,9.1 8.3,9.4 8.3,8.9 8.2,8.6 	"/>
	<polygon fill="#B3B3B3" points="8.1,7 8,6.9 7.8,6.8 7.8,7 	"/>
	<polygon fill="#B3B3B3" points="8.2,7.9 8.3,8.2 8.3,7.7 8.2,7.4 	"/>
	<polygon fill="#B3B3B3" points="8.3,7 8.3,7 8.3,7 	"/>
	<polygon fill="#B3B3B3" points="19.5,5.9 19.6,5.9 19.5,5.9 19.5,6 19.7,5.9 19.7,5.9 19.6,5.8 	"/>
	<polygon fill="#B3B3B3" points="19,6 19,6 19.2,6 19.2,6 	"/>
	<polygon fill="#B3B3B3" points="19.2,5.6 19.3,5.7 19.3,5.6 19.2,5.5 	"/>
	<polygon fill="#B3B3B3" points="18.9,5.4 19,5.3 18.8,5.2 18.8,5.3 	"/>
	<polygon fill="#B3B3B3" points="18.5,6 18.5,6 18.7,6 18.7,6 	"/>
	<polygon fill="#B3B3B3" points="18.4,4.9 18.6,5.1 18.6,5 18.5,4.9 	"/>
	<polygon fill="#B3B3B3" points="18,6.1 18,6.1 18.2,6.1 18.2,6 	"/>
	<polygon fill="#B3B3B3" points="17.5,6.1 17.4,6.1 17.7,6.1 17.7,6.1 	"/>
	<polygon fill="#B3B3B3" points="18.2,4.8 18.2,4.7 18.1,4.5 18.1,4.6 	"/>
	<polygon fill="#B3B3B3" points="17.7,4.3 17.8,4.4 17.9,4.4 17.7,4.2 	"/>
	<polygon fill="#B3B3B3" points="17.2,6.1 16.9,6.2 16.9,6.2 17.1,6.2 	"/>
	<polygon fill="#B3B3B3" points="16.4,6.2 16.4,6.2 16.6,6.2 16.6,6.2 	"/>
	<polygon fill="#B3B3B3" points="17.5,4.1 17.5,4 17.4,3.9 17.3,4 	"/>
	<polygon fill="#B3B3B3" points="15.9,6.2 15.9,6.3 16.1,6.2 16.1,6.2 	"/>
	<polygon fill="#B3B3B3" points="17.1,3.8 17.1,3.7 17,3.6 16.9,3.7 	"/>
	<polygon fill="#B3B3B3" points="16.7,3.5 16.8,3.4 16.6,3.3 16.6,3.4 	"/>
	<polygon fill="#B3B3B3" points="15.4,6.3 15.4,6.3 15.6,6.3 15.6,6.3 	"/>
	<polygon fill="#B3B3B3" points="16.4,3.2 16.4,3.1 16.2,3 16.2,3 	"/>
	<polygon fill="#B3B3B3" points="14.9,6.3 14.9,6.3 14.9,6.3 15.1,6.3 15.1,6.3 	"/>
	<polygon fill="#B3B3B3" points="16,2.9 16,2.8 15.9,2.6 15.8,2.7 	"/>
	<polygon fill="#B3B3B3" points="14.9,5.6 14.9,5.1 14.8,5.3 14.8,5.8 	"/>
	<polygon fill="#B3B3B3" points="14.9,3.9 14.8,4 14.8,4.6 14.9,4.4 	"/>
	<polygon fill="#B3B3B3" points="15.6,2.5 15.7,2.4 15.5,2.3 15.5,2.4 	"/>
	<polygon fill="#B3B3B3" points="15.3,2.2 15.3,2.1 15.1,2 15.1,2.1 	"/>
	<polygon fill="#B3B3B3" points="14.9,2.6 14.8,2.7 14.8,3.3 14.9,3.1 	"/>
	<polygon fill="#B3B3B3" points="14.9,2 14.9,1.9 14.9,1.9 14.9,1.9 14.9,1.8 14.9,1.8 	"/>
	<path fill="#B3B3B3" d="M4.7,2.4v1.8c0,0,0,0,0,0l0.1,0c0,0,0,0,0,0V2.4l0.5,0.1c0,0,0,0,0,0V2.3c0,0,0,0,0,0L4.1,2.2
		c0,0-0.1,0-0.1,0v0.1c0,0,0,0,0.1,0L4.7,2.4z"/>
	<path fill="#B3B3B3" d="M6.2,2.4l-0.1,0c0,0-0.1,0-0.1,0v1.2c0,0.3,0.2,0.8,0.7,0.8c0.6,0,0.8-0.4,0.8-0.7V2.5c0,0,0,0,0,0l-0.1,0
		c0,0,0,0,0,0v1.2c0,0.2-0.1,0.6-0.6,0.6c-0.5,0-0.6-0.5-0.6-0.7L6.2,2.4C6.2,2.4,6.2,2.4,6.2,2.4z"/>
	<path fill="#B3B3B3" d="M10.6,4.7L10.6,4.7c0.1,0,0.1,0,0.1,0V2.8c0,0,0,0,0,0l-0.1,0c0,0,0,0,0,0L10.6,4.7
		C10.6,4.7,10.6,4.7,10.6,4.7z"/>
	<path fill="#B3B3B3" d="M11.4,3.8c0,0.4,0.2,1,1,1.1c0.7,0.1,1-0.5,1-0.9c0-0.4-0.2-1-1-1.1C11.6,2.8,11.4,3.4,11.4,3.8z M12.4,3
		c0.7,0.1,0.8,0.7,0.8,0.9c0,0.2-0.1,0.8-0.8,0.8c-0.7-0.1-0.8-0.7-0.8-0.9C11.6,3.6,11.7,3,12.4,3z"/>
	<path fill="#B3B3B3" d="M8.3,2.6v1.9c0,0,0,0,0,0L9,4.6c0.7,0.1,1-0.5,1-0.9c0-0.4-0.2-1-1-1.1L8.3,2.6C8.3,2.6,8.3,2.6,8.3,2.6z
		 M9,2.7c0.7,0.1,0.8,0.7,0.8,0.9c0,0.2-0.1,0.8-0.8,0.8l-0.5,0V2.7L9,2.7z"/>
	<path fill="#B3B3B3" d="M12.9,7.9C12.9,7.9,12.9,7.8,12.9,7.9C12.8,7.8,12.8,7.9,12.9,7.9l-0.9,2c0,0,0,0,0,0l0.1,0c0,0,0,0,0.1,0
		l0.2-0.6l0.9-0.1l0.2,0.5c0,0,0,0,0.1,0l0.1,0c0,0,0,0,0,0L12.9,7.9z M13.2,9.1l-0.8,0.1l0.4-1L13.2,9.1z"/>
	<path fill="#B3B3B3" d="M18.2,8.4c0-0.4-0.2-1-1-0.9c-0.8,0.1-1,0.7-1,1.1c0,0.4,0.2,1,1,0.9C18,9.4,18.2,8.8,18.2,8.4z M17.2,9.4
		c-0.7,0.1-0.8-0.6-0.8-0.8c0-0.2,0.1-0.9,0.8-0.9C17.9,7.6,18,8.2,18,8.4C18,8.6,17.9,9.3,17.2,9.4z"/>
	<path fill="#B3B3B3" d="M15.6,9.6l-0.4-0.7c0.3-0.1,0.5-0.4,0.5-0.6c0-0.2-0.2-0.6-0.7-0.5l-0.7,0.1c0,0,0,0,0,0v1.9c0,0,0,0,0,0
		l0.1,0c0,0,0.1,0,0.1,0V8.9l0.5,0l0.4,0.7c0,0,0,0,0.1,0L15.6,9.6C15.6,9.6,15.6,9.6,15.6,9.6z M14.5,8.8V7.9l0.5,0
		c0.4,0,0.5,0.3,0.5,0.4c0,0.1-0.1,0.5-0.5,0.5L14.5,8.8z"/>
	<path fill="#B3B3B3" d="M11.5,9.8C11.5,9.8,11.5,9.7,11.5,9.8l0-0.1c0,0,0,0-0.1,0c-0.1,0.1-0.3,0.2-0.6,0.2C10.1,10,10,9.3,10,9.1
		c0-0.2,0.1-0.9,0.8-0.9c0.2,0,0.4,0.1,0.6,0.2c0,0,0,0,0.1,0l0.1-0.1c0,0,0,0,0-0.1C11.3,8.1,11.1,8,10.8,8c-0.8,0.1-1,0.7-1,1.1
		c0,0.4,0.2,1,1,0.9C11.1,10,11.3,9.9,11.5,9.8z"/>
	<path fill="#B3B3B3" d="M2.3,2.4c0,0-0.1,0.4,0.6,0.7c0,0,0.6,0.2,0.5,0.5l0,0c0,0,0,0.2-0.3,0.3c0,0,0,0,0,0c-0.1,0-0.4,0-0.6-0.3
		c0,0,0,0-0.1,0l-0.1,0c0,0,0,0,0,0c0,0,0,0,0,0C2.6,4.1,3,4.1,3.1,4.1c0,0,0.1,0,0.1,0C3.5,4,3.6,3.8,3.6,3.7C3.8,3.2,3,3,3,3
		C2.5,2.8,2.5,2.5,2.5,2.5l0,0c0-0.1,0.1-0.2,0.2-0.2c0.1,0,0.1,0,0.2,0c0.3,0,0.5,0.2,0.6,0.2c0,0,0,0,0.1,0l0.1-0.1c0,0,0,0,0,0
		c0,0,0,0,0,0C3.4,2.3,3.2,2.1,2.9,2.1c-0.1,0-0.2,0-0.2,0C2.6,2.1,2.4,2.2,2.3,2.4z"/>
</g>
</svg>
