<?xml version="1.0" encoding="utf-8"?>
<!-- Generator: Adobe Illustrator 18.0.0, SVG Export Plug-In . SVG Version: 6.00 Build 0)  -->
<!DOCTYPE svg PUBLIC "-//W3C//DTD SVG 1.1//EN" "http://www.w3.org/Graphics/SVG/1.1/DTD/svg11.dtd">
<svg version="1.1" xmlns="http://www.w3.org/2000/svg" xmlns:xlink="http://www.w3.org/1999/xlink" x="0px" y="0px"
	 viewBox="0 0 199.3 122.5" enable-background="new 0 0 199.3 122.5" xml:space="preserve">
<g id="Laag_2">
</g>
<g id="Laag_1">
	<g>
		<path fill="#FFFFFF" d="M192.7,58.6l-47.9-41.2c-0.2-0.2-0.5-0.2-0.8-0.2c0,0-0.1,0-0.1,0L6.3,5.1C6,5.1,5.6,5.1,5.4,5.3
			C5.3,5.5,5,5.7,5,6l0,44.8c0,0.4,0.1,0.8,0.4,1l74.4,63c0.1,0.1,0.3,0.2,0.4,0.2c0.2,0,0.3,0.1,0.5,0.1c0,0,0.1,0,0.2,0l111.3-9.7
			c0.5,0,0.9-0.4,0.9-0.9V59.9C193,59.3,193,58.9,192.7,58.6z M187.7,56.6l2.1,1.8l-0.1,0.1l-3,0.3L187.7,56.6z M186.2,55.3
			l-1.5,3.7l-3,0.3l2.3-5.8L186.2,55.3z M182.6,52.2l-2.9,7.2l-3,0.3l3.8-9.3L182.6,52.2z M179,49.1l-4.3,10.7l-3,0.3l5.2-12.8
			L179,49.1z M175.4,46l-5.8,14.3l-3,0.3l6.6-16.3L175.4,46z M171.8,43l-7.2,17.8l-3,0.3l8-19.9L171.8,43z M168.3,39.9l-8.6,21.3
			l-3,0.3l9.5-23.4L168.3,39.9z M164.7,36.8l-10.1,24.8l-3,0.3l10.9-26.9L164.7,36.8z M161.1,33.7l-11.5,28.4l-3,0.3l12.3-30.5
			L161.1,33.7z M144.5,19.8l0.1-0.3l2.1,1.8l-2.3,5.6V19.8z M144.5,31.8l3.7-9.2l2.1,1.8l-5.9,14.5V31.8z M144.5,43.7l7.3-18.1
			l2.1,1.8l-9.4,23.3V43.7z M144.5,55.7l10.9-26.9l2.1,1.8l-12.9,31.9l-0.1,0V55.7z M6.9,6.8l135.7,11.9v43.8L7,50.6L6.9,6.8z
			 M9.6,52.9l2,0.5l0.7,1.8L9.6,52.9z M15.3,57.7l-1.6-3.8l3.2,0.8l2.7,6.8L15.3,57.7z M22.7,64l-3.6-8.8l3.2,0.8l4.7,11.7L22.7,64z
			 M30.1,70.2l-5.6-13.8l3.2,0.8l6.8,16.7L30.1,70.2z M37.5,76.5l-7.6-18.7l3.2,0.8l8.8,21.6L37.5,76.5z M44.8,82.7L35.2,59l3.2,0.8
			l10.8,26.6L44.8,82.7z M52.2,88.9L40.6,60.3l3.2,0.8l12.8,31.6L52.2,88.9z M59.6,95.2L46,61.6l3.2,0.8l14.8,36.5L59.6,95.2z
			 M66.9,101.4L51.3,62.9l3.2,0.8l16.8,41.5L66.9,101.4z M74.3,107.7L56.7,64.2l3.2,0.8l18.8,46.4L74.3,107.7z M79.4,108.2
			L62.1,65.5l3.2,0.8l14.1,34.9V108.2z M79.4,96.3L67.4,66.7l3.2,0.8l8.8,21.7V96.3z M79.4,84.3L72.8,68l3.2,0.8l3.4,8.4V84.3z
			 M79.4,72.3l-1.2-3l1.2,0.3V72.3z M80.6,68.1C80.6,68.1,80.6,68.1,80.6,68.1L20,53.5l112.4,10L80.6,68.1z M191.2,103.6l-110,9.6
			V69.8l61.6-5.4l1.6-0.1l46.8-4.1V103.6z"/>
		<path fill="#FFFFFF" d="M139.1,76.6v18.7c0,0.2-0.1,0.4,0.1,0.4l1.2-0.1c0.2,0,0.7-0.2,0.7-0.4v-7.4l4.9-0.5l3.3,7.1
			c0.1,0.2,0.2,0.3,0.4,0.3l0.9-0.1c0.2,0,0.3-0.2,0.2-0.4l-3.6-7.1c3.1-0.8,4.9-3.7,4.9-6.3c0-2.4-1.5-5.7-6.6-5.3l-6.3,0.6
			C139,76.2,139.1,76.4,139.1,76.6z M141.1,77.4l5.1-0.5c3.8-0.3,4.6,2.5,4.6,4.1c0,1.4-0.8,4.5-4.5,4.9l-5.2,0.5V77.4z"/>
		<path fill="#FFFFFF" d="M167.2,93.4c7.5-0.7,9.6-6.7,9.6-10.8c0-4.1-2.2-9.8-9.6-9.1c-7.4,0.7-9.6,6.7-9.6,10.8
			C157.6,88.4,159.8,94,167.2,93.4z M167.2,75c6.9-0.6,7.8,5.6,7.8,7.7c0,2.1-0.9,8.6-7.8,9.2s-7.8-5.6-7.8-7.8
			C159.4,81.9,160.4,75.6,167.2,75z"/>
		<path fill="#FFFFFF" d="M28.4,29.7c-5.3-1.8-4.8-4.6-4.8-4.8l0-0.1c0.2-1.3,1.4-1.7,1.6-1.8c0.6-0.2,1.2-0.3,1.8-0.3
			c2.5,0,4.6,1.6,5.4,2.3c0.2,0.1,0.4,0.1,0.6,0l0.6-0.5c0.1-0.1,0.1-0.2,0.1-0.3c0-0.1-0.1-0.2-0.1-0.3c-0.9-0.8-3.4-2.8-6.5-2.8
			c-0.8,0-1.6,0.1-2.3,0.4c-0.2,0.1-2.4,0.8-2.7,3.1c-0.1,0.4-0.6,4.4,5.9,6.6c0.1,0,6,2.1,5.3,5.2l0,0.1c0,0.1-0.3,2.2-3.2,2.6
			c0,0-0.2,0-0.5,0c-1,0-3.7-0.3-5.8-2.6c-0.2-0.2-0.4-0.2-0.6-0.1l-0.6,0.5c-0.1,0.1-0.2,0.2-0.2,0.3c0,0.1,0,0.2,0.1,0.3
			c2.6,2.9,5.8,3.2,7,3.2c0.4,0,0.6,0,0.7,0c3.3-0.5,4.4-2.7,4.6-4C35.9,32.1,28.5,29.7,28.4,29.7z"/>
		<path fill="#FFFFFF" d="M86.6,26.1l-6.1-0.5c-0.2,0-0.4,0.1-0.4,0.3v18.3c0,0.2,0.2,0.4,0.4,0.4l6.1,0.5c7.3,0.6,9.4-4.6,9.4-8.7
			C96,32.5,93.9,26.7,86.6,26.1z M86.7,43.8l-4.6-0.4V27l4.6,0.4c6.7,0.6,7.7,6.7,7.7,8.8C94.4,38.4,93.4,44.4,86.7,43.8z"/>
		<path fill="#FFFFFF" d="M103.7,27.6l-1.1-0.1c-0.2,0-0.5,0.1-0.5,0.3v18.3c0,0.2,0.3,0.4,0.5,0.4l1,0.1c0.2,0,0.5-0.1,0.5-0.3V28
			C104.1,27.8,104,27.6,103.7,27.6z"/>
		<path fill="#FFFFFF" d="M119.9,28.8c-7.3-0.6-9.4,4.9-9.4,8.9c0,4.1,2.1,9.9,9.4,10.6c7.3,0.6,9.4-4.9,9.4-8.9
			C129.3,35.3,127.2,29.4,119.9,28.8z M119.9,46.7c-6.7-0.6-7.6-6.8-7.6-8.9c0-2.1,0.9-8.1,7.6-7.5c6.7,0.6,7.6,6.8,7.6,8.8
			C127.5,41.2,126.6,47.3,119.9,46.7z"/>
		<path fill="#FFFFFF" d="M104.5,80.4c2.1-0.2,4.1,0.5,5.5,1.5c0.2,0.1,0.4,0.1,0.6-0.1l0.6-0.7c0.1-0.2,0.1-0.4-0.1-0.5
			c-1.7-1.3-3.7-2-6.5-1.8c-7.4,0.7-9.6,6.8-9.6,10.8c0,4.2,2.2,9.9,9.6,9.2c2.7-0.2,4.8-1.4,6.5-2.8c0.2-0.2,0.2-0.4,0.1-0.6
			l-0.5-0.6c-0.1-0.2-0.4-0.2-0.6,0c-1.4,1.2-3.4,2.2-5.5,2.4c-6.9,0.6-7.8-5.6-7.8-7.8C96.7,87.4,97.7,81.1,104.5,80.4z"/>
		<path fill="#FFFFFF" d="M72.7,24.9l-1.1-0.1c-0.2,0-0.5,0.1-0.5,0.3v11.6c0,1.6-1,5.8-5.5,5.4c-4.4-0.4-5.5-4.8-5.5-6.4V24.2
			c0-0.2-0.1-0.4-0.4-0.4l-1.1-0.1c-0.2,0-0.5,0.1-0.5,0.3v11.6c0,3.1,2.1,7.4,7.5,7.9c5.4,0.5,7.5-3.5,7.5-6.6V25.3
			C73.1,25.1,72.9,24.9,72.7,24.9z"/>
		<path fill="#FFFFFF" d="M124.8,77.4c-0.1-0.1-0.2-0.2-0.4-0.2s-0.3,0.1-0.4,0.3l-7.9,19.8c-0.1,0.2,0.1,0.4,0.3,0.3l1.2-0.1
			c0.2,0,0.4-0.2,0.5-0.4l2.1-5.4l8.5-0.7l2.1,5c0.1,0.2,0.3,0.3,0.5,0.3l1.2-0.1c0.2,0,0.3-0.2,0.3-0.4L124.8,77.4z M120.7,90.4
			l3.7-9.5l3.7,8.9L120.7,90.4z"/>
		<path fill="#FFFFFF" d="M52.6,23.1L39.6,22c-0.2,0-0.5,0.1-0.5,0.3v0.6c0,0.2,0.2,0.4,0.4,0.4l5.6,0.5v17.3c0,0.2,0.1,0.4,0.4,0.4
			l1.1,0.1c0.2,0,0.5-0.1,0.5-0.3V24l5.6,0.5c0.2,0,0.4-0.1,0.4-0.3v-0.6C53.1,23.3,52.8,23.1,52.6,23.1z"/>
	</g>
</g>
</svg>
